<svg width="2004" height="386" viewBox="0 0 2004 386" fill="none" xmlns="http://www.w3.org/2000/svg">
<path d="M1762.58 7.98885H1858.52V74.0307H1865.9L1889.62 11.1589C1910.7 3.23383 1929.15 0.063833 1952.35 0.063833C1971.85 0.063833 1992.41 2.70551 2003.48 6.40387V115.769H2002.43C1986.09 105.202 1959.73 97.8058 1938.11 97.8058C1891.73 97.8058 1858.52 123.694 1858.52 161.734V377.823H1762.58V7.98885Z" fill="black"/>
<path d="M1559.14 385.748C1437.37 385.748 1358.82 305.97 1358.82 189.736C1358.82 77.2008 1436.31 0.063833 1548.59 0.063833C1659.82 0.063833 1730.46 76.6724 1730.46 192.378C1730.46 204.53 1729.93 214.568 1728.88 221.965H1462.67C1465.83 256.835 1504.84 296.988 1560.19 296.988C1608.69 296.988 1640.84 275.855 1665.62 241.513L1730.98 304.913C1695.14 357.218 1633.46 385.748 1559.14 385.748ZM1462.67 150.111H1629.25C1621.34 112.071 1593.4 87.2391 1547.01 87.2391C1500.1 87.2391 1470.58 112.599 1462.67 150.111Z" fill="black"/>
<path d="M1136.36 221.963V377.822H1040.42V7.98758H1136.36V149.053H1157.97L1269.73 7.98758H1380.43L1241.79 183.395L1383.06 377.822H1270.78L1157.97 221.963H1136.36Z" fill="black"/>
<path d="M795.494 385.747C693.228 387.332 610.467 308.081 612.048 192.904C610.467 77.7274 692.701 -1.52285 800.765 0.0621701C827.649 0.0621701 847.681 2.70384 866.658 11.1572L885.635 63.9907H893.015V7.98719H988.955V377.822H893.015V321.818H885.635L865.604 375.18C849.262 382.048 816.579 385.747 795.494 385.747ZM713.259 192.904C713.259 223.02 721.694 247.851 738.562 267.4C754.904 286.948 778.098 296.986 807.618 296.986C835.556 296.986 857.697 286.948 873.511 267.4C889.325 247.851 897.232 223.02 897.232 192.904C897.232 132.146 864.022 88.8224 807.618 88.8224C748.578 88.8224 713.259 132.146 713.259 192.904Z" fill="black"/>
<path d="M472.011 377.823V173.886C472.011 114.184 449.343 88.8241 403.482 88.8241C359.729 88.8241 330.736 121.581 330.736 163.319V377.823H234.796V173.886C234.796 114.184 212.129 88.8241 166.268 88.8241C123.569 88.8241 96.1577 121.053 96.1577 163.319V377.823H0.217773V7.98885H96.1577V63.9924H103.538L124.096 11.1589C139.911 3.76219 163.105 0.063833 194.206 0.063833C256.936 0.063833 292.255 20.6689 313.341 67.1624H320.721L337.589 11.1589C359.202 4.29052 393.466 0.063833 418.242 0.063833C519.981 0.063833 567.951 57.6524 567.951 154.866V377.823H472.011Z" fill="black"/>
</svg>
